<svg width="150" height="150" viewBox="0 0 150 150" fill="none" xmlns="http://www.w3.org/2000/svg">
<path id="Vector" d="M56.25 150C48.875 150 42.655 147.47 37.59 142.41C32.525 137.35 29.995 131.13 30 123.75C30 122.625 30.1575 121.75 30.4725 121.125C30.7875 120.5 30.755 120 30.375 119.625C29.995 119.25 29.495 119.22 28.875 119.535C28.255 119.85 27.38 120.005 26.25 120C18.875 120 12.655 117.47 7.59001 112.41C2.52501 107.35 -0.0049926 101.13 7.39645e-06 93.75C0.0050074 86.37 2.53751 80.15 7.59751 75.09C12.6575 70.03 18.875 67.5 26.25 67.5C29.125 67.5 31.75 67.875 34.125 68.625C36.5 69.375 38.75 70.5 40.875 72L72 40.875C70.5 38.75 69.375 36.5 68.625 34.125C67.875 31.75 67.5 29.125 67.5 26.25C67.5 18.875 70.0325 12.655 75.0975 7.59001C80.1625 2.52501 86.38 -0.0049926 93.75 7.39645e-06C101.12 0.0050074 107.34 2.53751 112.41 7.59751C117.48 12.6575 120.01 18.875 120 26.25C120 27.375 119.845 28.25 119.535 28.875C119.225 29.5 119.255 30 119.625 30.375C119.995 30.75 120.495 30.7825 121.125 30.4725C121.755 30.1625 122.63 30.005 123.75 30C131.125 30 137.345 32.5325 142.41 37.5975C147.475 42.6625 150.005 48.88 150 56.25C149.995 63.62 147.465 69.84 142.41 74.91C137.355 79.98 131.135 82.51 123.75 82.5C120.875 82.5 118.25 82.125 115.875 81.375C113.5 80.625 111.25 79.5 109.125 78L78 109.125C79.5 111.25 80.625 113.5 81.375 115.875C82.125 118.25 82.5 120.875 82.5 123.75C82.5 131.125 79.97 137.345 74.91 142.41C69.85 147.475 63.63 150.005 56.25 150Z" fill="white"/>
</svg>
