<svg width="24" height="19" viewBox="0 0 24 19" fill="none" xmlns="http://www.w3.org/2000/svg">
<path d="M12 0C8.7 0 6 2.66 6 5.9375C6 9.215 8.7 11.875 12 11.875C15.3 11.875 18 9.215 18 5.9375C18 2.66 15.3 0 12 0ZM5.73 11.875C2.55 11.9938 0 14.06 0 16.625V19H24V16.625C24 14.06 21.48 11.9938 18.27 11.875C16.65 13.3238 14.43 14.25 12 14.25C9.57 14.25 7.35 13.3238 5.73 11.875Z" fill="url(#paint0_linear_86_61)"/>
<defs>
<linearGradient id="paint0_linear_86_61" x1="12" y1="0" x2="12" y2="19" gradientUnits="userSpaceOnUse">
<stop offset="0.47" stop-color="#3E4EFF"/>
<stop offset="1" stop-color="#773EFF"/>
</linearGradient>
</defs>
</svg>
