<svg width="20" height="20" viewBox="0 0 20 20" fill="none" xmlns="http://www.w3.org/2000/svg">
<g filter="url(#filter0_d_1022_270)">
<path d="M9.93144 0C7.25213 0 6.91521 0.0125 5.86249 0.06C4.80978 0.11 4.09274 0.2775 3.46457 0.525C2.80535 0.775407 2.20839 1.16925 1.7158 1.67875C1.21276 2.17768 0.823916 2.78231 0.576687 3.45C0.332328 4.085 0.165719 4.8125 0.117588 5.875C0.070691 6.94375 0.0583496 7.28375 0.0583496 10.0013C0.0583496 12.7163 0.070691 13.0563 0.117588 14.1225C0.166954 15.1875 0.332328 15.9138 0.576687 16.55C0.829685 17.2075 1.1666 17.765 1.7158 18.3213C2.26375 18.8775 2.81418 19.22 3.46333 19.475C4.09274 19.7225 4.80854 19.8913 5.86003 19.94C6.91398 19.9875 7.24966 20 9.93144 20C12.6132 20 12.9477 19.9875 14.0016 19.94C15.0519 19.89 15.7714 19.7225 16.3996 19.475C17.0583 19.2244 17.6549 18.8306 18.1471 18.3213C18.6963 17.765 19.0332 17.2075 19.2862 16.55C19.5293 15.9138 19.6959 15.1875 19.7453 14.1225C19.7922 13.0563 19.8045 12.7163 19.8045 10C19.8045 7.28375 19.7922 6.94375 19.7453 5.87625C19.6959 4.8125 19.5293 4.085 19.2862 3.45C19.039 2.78231 18.6501 2.17768 18.1471 1.67875C17.6545 1.16925 17.0575 0.775407 16.3983 0.525C15.7689 0.2775 15.0506 0.10875 14.0004 0.06C12.9464 0.0125 12.612 0 9.92897 0H9.93144ZM9.04657 1.8025H9.93268C12.5688 1.8025 12.881 1.81125 13.9214 1.86C14.884 1.90375 15.4073 2.0675 15.7553 2.20375C16.2157 2.385 16.5452 2.6025 16.8907 2.9525C17.2363 3.3025 17.4498 3.635 17.6288 4.1025C17.7645 4.45375 17.9249 4.98375 17.9681 5.95875C18.0163 7.0125 18.0261 7.32875 18.0261 9.9975C18.0261 12.6663 18.0163 12.9837 17.9681 14.0375C17.9249 15.0125 17.7633 15.5413 17.6288 15.8938C17.4693 16.3274 17.2168 16.7197 16.8895 17.0425C16.5439 17.3925 16.2157 17.6088 15.7541 17.79C15.4085 17.9275 14.8853 18.09 13.9214 18.135C12.881 18.1825 12.5688 18.1938 9.93268 18.1938C7.29656 18.1938 6.98309 18.1825 5.94271 18.135C4.98009 18.09 4.45805 17.9275 4.11002 17.79C3.68157 17.6291 3.29376 17.3738 2.97461 17.0425C2.64667 16.7195 2.39374 16.3267 2.23413 15.8925C2.09961 15.5413 1.93794 15.0113 1.89474 14.0363C1.84785 12.9825 1.83797 12.6663 1.83797 9.995C1.83797 7.32375 1.84785 7.01 1.89474 5.95625C1.93917 4.98125 2.09961 4.45125 2.23537 4.09875C2.41432 3.6325 2.62906 3.29875 2.97461 2.94875C3.32017 2.59875 3.64845 2.3825 4.11002 2.20125C4.45805 2.06375 4.98009 1.90125 5.94271 1.85625C6.85351 1.81375 7.20647 1.80125 9.04657 1.8V1.8025ZM15.2024 3.4625C15.0469 3.4625 14.8928 3.49354 14.749 3.55384C14.6053 3.61415 14.4747 3.70254 14.3647 3.81397C14.2547 3.9254 14.1674 4.05769 14.1079 4.20328C14.0483 4.34887 14.0177 4.50491 14.0177 4.6625C14.0177 4.82009 14.0483 4.97613 14.1079 5.12172C14.1674 5.26731 14.2547 5.3996 14.3647 5.51103C14.4747 5.62246 14.6053 5.71085 14.749 5.77116C14.8928 5.83146 15.0469 5.8625 15.2024 5.8625C15.5167 5.8625 15.818 5.73607 16.0402 5.51103C16.2624 5.28598 16.3872 4.98076 16.3872 4.6625C16.3872 4.34424 16.2624 4.03902 16.0402 3.81397C15.818 3.58893 15.5167 3.4625 15.2024 3.4625ZM9.93268 4.865C9.26016 4.85437 8.59227 4.97936 7.9679 5.23268C7.34353 5.486 6.77516 5.86259 6.29586 6.34053C5.81657 6.81847 5.43593 7.38821 5.17612 8.01658C4.9163 8.64494 4.7825 9.31938 4.7825 10.0006C4.7825 10.6819 4.9163 11.3563 5.17612 11.9847C5.43593 12.613 5.81657 13.1828 6.29586 13.6607C6.77516 14.1387 7.34353 14.5153 7.9679 14.7686C8.59227 15.0219 9.26016 15.1469 9.93268 15.1363C11.2637 15.1152 12.5333 14.5649 13.4672 13.6041C14.4012 12.6432 14.9246 11.349 14.9246 10.0006C14.9246 8.65228 14.4012 7.35802 13.4672 6.39719C12.5333 5.43636 11.2637 4.88603 9.93268 4.865ZM9.93268 6.66625C10.3649 6.66625 10.7929 6.75248 11.1923 6.92002C11.5916 7.08755 11.9544 7.33312 12.2601 7.64268C12.5657 7.95225 12.8082 8.31976 12.9736 8.72423C13.139 9.1287 13.2241 9.56221 13.2241 10C13.2241 10.4378 13.139 10.8713 12.9736 11.2758C12.8082 11.6802 12.5657 12.0478 12.2601 12.3573C11.9544 12.6669 11.5916 12.9124 11.1923 13.08C10.7929 13.2475 10.3649 13.3337 9.93268 13.3337C9.05973 13.3337 8.22254 12.9825 7.60527 12.3573C6.98801 11.7321 6.64123 10.8842 6.64123 10C6.64123 9.11583 6.98801 8.26788 7.60527 7.64268C8.22254 7.01748 9.05973 6.66625 9.93268 6.66625Z" fill="white"/>
</g>
<defs>
<filter id="filter0_d_1022_270" x="-3.94165" y="0" width="27.7462" height="28" filterUnits="userSpaceOnUse" color-interpolation-filters="sRGB">
<feFlood flood-opacity="0" result="BackgroundImageFix"/>
<feColorMatrix in="SourceAlpha" type="matrix" values="0 0 0 0 0 0 0 0 0 0 0 0 0 0 0 0 0 0 127 0" result="hardAlpha"/>
<feOffset dy="4"/>
<feGaussianBlur stdDeviation="2"/>
<feComposite in2="hardAlpha" operator="out"/>
<feColorMatrix type="matrix" values="0 0 0 0 0 0 0 0 0 0 0 0 0 0 0 0 0 0 0.25 0"/>
<feBlend mode="normal" in2="BackgroundImageFix" result="effect1_dropShadow_1022_270"/>
<feBlend mode="normal" in="SourceGraphic" in2="effect1_dropShadow_1022_270" result="shape"/>
</filter>
</defs>
</svg>
