<svg width="389" height="105" viewBox="0 0 389 105" fill="none" xmlns="http://www.w3.org/2000/svg">
<g filter="url(#filter0_d_89_68)">
<path fill-rule="evenodd" clip-rule="evenodd" d="M-28 70.5137L-9.82005 55.5196C8.3599 40.5256 45.856 12.0369 82.2159 3.04047C119.712 -5.95596 156.072 6.03928 193.568 25.5315C229.928 46.5232 266.288 76.5113 303.784 76.5113C340.144 76.5113 377.64 46.5232 395.82 31.5292L414 18.0345V105H395.82C377.64 105 340.144 105 303.784 105C266.288 105 229.928 105 193.568 105C156.072 105 119.712 105 82.2159 105C45.856 105 8.3599 105 -9.82005 105H-28V70.5137Z" fill="url(#paint0_linear_89_68)"/>
<path fill-rule="evenodd" clip-rule="evenodd" d="M-28 70.5137L-9.82005 55.5196C8.3599 40.5256 45.856 12.0369 82.2159 3.04047C119.712 -5.95596 156.072 6.03928 193.568 25.5315C229.928 46.5232 266.288 76.5113 303.784 76.5113C340.144 76.5113 377.64 46.5232 395.82 31.5292L414 18.0345V105H395.82C377.64 105 340.144 105 303.784 105C266.288 105 229.928 105 193.568 105C156.072 105 119.712 105 82.2159 105C45.856 105 8.3599 105 -9.82005 105H-28V70.5137Z" stroke="black"/>
</g>
<defs>
<filter id="filter0_d_89_68" x="-32" y="0" width="450" height="113" filterUnits="userSpaceOnUse" color-interpolation-filters="sRGB">
<feFlood flood-opacity="0" result="BackgroundImageFix"/>
<feColorMatrix in="SourceAlpha" type="matrix" values="0 0 0 0 0 0 0 0 0 0 0 0 0 0 0 0 0 0 127 0" result="hardAlpha"/>
<feOffset dy="4"/>
<feGaussianBlur stdDeviation="2"/>
<feComposite in2="hardAlpha" operator="out"/>
<feColorMatrix type="matrix" values="0 0 0 0 0 0 0 0 0 0 0 0 0 0 0 0 0 0 0.25 0"/>
<feBlend mode="normal" in2="BackgroundImageFix" result="effect1_dropShadow_89_68"/>
<feBlend mode="normal" in="SourceGraphic" in2="effect1_dropShadow_89_68" result="shape"/>
</filter>
<linearGradient id="paint0_linear_89_68" x1="82.7841" y1="3.2438e-06" x2="347.369" y2="81.313" gradientUnits="userSpaceOnUse">
<stop offset="0.18" stop-color="#3E4EFF"/>
<stop offset="0.67" stop-color="#252F99"/>
</linearGradient>
</defs>
</svg>
